<svg id="Слой_1" data-name="Слой 1" xmlns="http://www.w3.org/2000/svg" viewBox="0 0 41 52.46"><defs><style>.cls-1{fill:#a32721;}</style></defs><title>Монтажная область 1</title><path class="cls-1" d="M13.72,27.2a8.54,8.54,0,0,0,2.35,1.34,11.77,11.77,0,0,0,2.72.68c-.11.48-.32,6-.62,6.16a3.12,3.12,0,0,1-.95.4l-.85.18c-.25,0-.37.17-.37.35a.34.34,0,0,0,.2.35,1,1,0,0,0,.39.08q1,0,1.91-.07t1.89-.07c.63,0,1.31,0,1.94.07s1.27.07,1.91.07a1,1,0,0,0,.39-.08.34.34,0,0,0,.2-.35c0-.19-.12-.31-.37-.35l-.86-.18a3.12,3.12,0,0,1-.94-.4c-.31-.19-.52-5.69-.63-6.16a11.74,11.74,0,0,0,2.72-.68A8.54,8.54,0,0,0,27.1,27.2a6.38,6.38,0,0,0,1.65-2,5.79,5.79,0,0,0,.62-2.75,4.47,4.47,0,0,0-.68-2.5,6.2,6.2,0,0,0-1.76-1.77,8.71,8.71,0,0,0-2.38-1.11A13.38,13.38,0,0,0,22,16.57a14.74,14.74,0,0,1,.4-2.37,3.41,3.41,0,0,1,.56-.35l.5-.26a.39.39,0,0,0,.22-.36.34.34,0,0,0-.16-.32.72.72,0,0,0-.35-.09q-.79,0-1.58.08a9.7,9.7,0,0,1-1.23.08,9,9,0,0,1-1.18-.08c-.53-.05-1.05-.08-1.58-.08a.72.72,0,0,0-.35.09.34.34,0,0,0-.16.32.39.39,0,0,0,.22.36l.5.26a3.43,3.43,0,0,1,.56.35,14.59,14.59,0,0,1,.4,2.37,13.37,13.37,0,0,0-2.53.51,8.68,8.68,0,0,0-2.38,1.11A6.21,6.21,0,0,0,12.13,20a4.47,4.47,0,0,0-.68,2.5,5.79,5.79,0,0,0,.62,2.75A6.39,6.39,0,0,0,13.72,27.2Zm9.85-8.53a5.27,5.27,0,0,1,2.27,2.66,5,5,0,0,1,.33,1.81,4.79,4.79,0,0,1-.32,1.77,4.34,4.34,0,0,1-.88,1.4,4.89,4.89,0,0,1-1.34,1,5.51,5.51,0,0,1-1.73.54q0-2.48,0-4.94t0-4.94A6.84,6.84,0,0,1,23.57,18.68ZM15,21.34a5.27,5.27,0,0,1,2.27-2.66A6.82,6.82,0,0,1,18.95,18q0,2.48,0,4.94t0,4.94a5.48,5.48,0,0,1-1.73-.54,4.9,4.9,0,0,1-1.34-1,4.36,4.36,0,0,1-.88-1.4,4.81,4.81,0,0,1-.31-1.77A5,5,0,0,1,15,21.34Z"/><path class="cls-1" d="M5.43,38.62S4,44.93,14.12,48.07c0,0,4.37,1.1,5.69,3.88a.72.72,0,0,0,1.37,0c1.32-2.78,5.69-3.88,5.69-3.88,10.13-3.14,8.7-9.46,8.7-9.46a27.61,27.61,0,0,1,3.77-16.34A10.24,10.24,0,0,0,41,16.53V12.67a8.16,8.16,0,0,0-3.93-6.4c-4-2.45-9-.74-9-.74-2-3.71-7.13-5-7.13-5a2,2,0,0,0-.45-.1,2,2,0,0,0-.45.1s-5.11,1.27-7.13,5c0,0-4.93-1.72-9,.74A8.16,8.16,0,0,0,0,12.67v3.86a10.23,10.23,0,0,0,1.65,5.75A27.62,27.62,0,0,1,5.43,38.62Zm-1.05-31C8,5.23,12.81,7,12.81,7c1,.36,1.2-.38,1.2-.38,1.47-3.43,6.5-4.69,6.5-4.69s5,1.26,6.5,4.69c0,0,.24.74,1.2.38,0,0,4.82-1.74,8.43.7a6.91,6.91,0,0,1,2.94,6.71,11,11,0,0,1-1.49,4.31,29.28,29.28,0,0,0-3.92,17.06s.63,5.65-7.67,8c0,0-4.72,1.1-6,3.5-1.26-2.4-6-3.5-6-3.5-8.3-2.34-7.67-8-7.67-8A29.28,29.28,0,0,0,2.94,18.68a11,11,0,0,1-1.49-4.31A6.91,6.91,0,0,1,4.38,7.67Z"/></svg>