<svg id="Слой_1" data-name="Слой 1" xmlns="http://www.w3.org/2000/svg" viewBox="0 0 262.41 179"><defs><style>.cls-1{fill:#18161b;}</style></defs><title>Монтажная область 1</title><path class="cls-1" d="M74.65,83.55c2.23,2.24,6,2.13,6,2.13a10.25,10.25,0,0,0,6.86-2.32c4.25-3.4,8.42-17.88,8.42-17.88,1.32-4,2.35-4.18,2.35-4.18a4.82,4.82,0,0,1,2.56.46,6.58,6.58,0,0,1,4,3.46,3.17,3.17,0,0,1-1.28,3.6c-2.16,1.51-3.28,0-3.28,0-.78-1-1.26-.77-1.26-.77-.67.4.16,1.31.16,1.31a3.79,3.79,0,0,0,2.88,1.41c3.28,0,4.15-3.44,4.15-3.44.79-2.94-2-5.1-2-5.1A11,11,0,0,0,99.42,60a.67.67,0,0,0,.15-.87c-.43-.51-1.24.09-1.24.09a3.4,3.4,0,0,1-1.89.32c-1.64-.28-5.09-.79-5.09-.79-5.3-.51-7.66,2.15-7.66,2.15a5.05,5.05,0,0,0-.9,5.77,2.84,2.84,0,0,0,2.84,1.58,5.65,5.65,0,0,0,4-2.48,3.59,3.59,0,0,0,0-3.8c-.92-1.32-1.43-.58-1.43-.58-.36.49.37,1.39.37,1.39,1,1.57-.7,3.14-.7,3.14a3.52,3.52,0,0,1-2.61,1c-1.31,0-1.56-1.79-1.56-1.79a3.68,3.68,0,0,1,1.38-3.75A8.12,8.12,0,0,1,89.44,60a28.82,28.82,0,0,1,6.43.76c.75.18.39.69.39.69a125.16,125.16,0,0,0-5.73,11.42,42.42,42.42,0,0,1-4.66,8,7.52,7.52,0,0,1-6.68,3.31c-3.86-.41-4.66-2.83-4.66-2.83-.41-1.3.61-1.28.61-1.28.68,0,.53,1,.53,1-.12.81.38.94.38.94.6.14.83-.52.83-.52a2,2,0,0,0-.7-2.41c-1.79-1.25-2.78.91-2.78.91C72.62,81.67,74.65,83.55,74.65,83.55Z"/><path class="cls-1" d="M104.6,85.46s-3.92,3.11-5.45,1.68c0,0-1.41-1.15.86-5.44,0,0,1.12-2.36,1.85-4,0,0,.56-1.25-.69-1.46,0,0-1.17-.42-2.81,2.21,0,0-2.22,3.12-1.11,3.51,0,0-2.08,4.3.33,6.09,0,0,2.39,2,5.92-.18a16.41,16.41,0,0,0,2.77-2.2s-.87,2.05-2.12,4.91a22.25,22.25,0,0,0-7,4.75s-3.8,3.46-2,7.32c0,0,1.58,3.7,4.93,0a33.79,33.79,0,0,0,4.38-7.17s.88-1.82,2.11-4.41c.57-.22,1.16-.44,1.79-.65,0,0,5.29-1.75,7.21-4.45a4.73,4.73,0,0,0,1.9,4,6.54,6.54,0,0,0,5.78.51A9.9,9.9,0,0,0,127.54,87a4.58,4.58,0,0,0,4.13,4.7,7.37,7.37,0,0,0,6.59-2.63,13.56,13.56,0,0,0,1.78-1.8l-.47,2.58s-.39,1.33.93,1.32c0,0,1.18.16,1.37-1.44l.78-4.38a5,5,0,0,1,3.39,1c.92.58,2,3.24,2,3.24,1.56,2.35,4.29.68,4.29.68a8.55,8.55,0,0,0,3.09-3.12,2.72,2.72,0,0,0,2.4,2.26s3.38.54,6.13-4.51c0,0,.21,3.17,2.85,3.08,0,0,2.91.06,4.91-5.7.13,2.2.74,4.39,2.55,4.85,0,0,3.58,1,6.84-5.66,0,0,0,3.53,3,3.55,0,0,3.5,0,5.52-7.25,0,0,.27-.76-.27-1,0,0-.53-.19-.89.75,0,0-1,4.73-3.39,5.7,0,0-1.34.89-1.53-1.66a37.58,37.58,0,0,1,.48-7.14s.25-1.26-1-1.22c0,0-1.08-.21-1.41,1.25,0,0,.19,6.42-4.27,10.32,0,0-2.65,2.67-3.24-.75a23.62,23.62,0,0,1,.29-7.34s.3-1.4-.88-1.28c0,0-1.07-.07-1.53,1.9,0,0-.18,1-.28,2.33-.4,1.15-2.07,5.66-3.86,6.51,0,0-1.2.61-1.53-.55a6.07,6.07,0,0,1-.19-1.88l.17-5.35s.25-1.2-.85-1.21a1.22,1.22,0,0,0-1.26,1.21s.12,6-4,9.17c0,0-2.21,1.61-2.45-.75,0,0-.61-2.35.53-6.6,0,0,.49-1.36-.9-1.38,0,0-1.12-.12-1.56,1.33a39.68,39.68,0,0,0-.56,4.53,7.63,7.63,0,0,0,0,1.06c-.64,1-1.31,1.93-1.31,1.93-1.89,2.27-3.49,2.05-3.49,2.05-1.17,0-1.67-1.69-1.67-1.69a9.85,9.85,0,0,0-.71-1.72c-1.38-2.53-5-2.25-5-2.25.53-.19,1.59-2,1.59-2a5.1,5.1,0,0,1,1.83-1.6,3.47,3.47,0,0,1,2.74-.2c.48.25.18.58.18.58-.75.67-.49,1.2-.49,1.2.3.71,1.42.32,1.42.32a1.32,1.32,0,0,0,.59-2.07,3.25,3.25,0,0,0-3.2-1.45c-1.94.17-3.76,2-4.54,2.91l.17-1s.28-1.37-.71-1.44c-1.36,0-1.43,1.44-1.43,1.44l-.59,3.5a22.32,22.32,0,0,1-3.4,4.4s-3,3.23-6.1,1.49A3.75,3.75,0,0,1,129.85,86s.63-3.32,3-4.27a1.8,1.8,0,0,1,1.42.09s.49.28.09.56c0,0-.87.72-.05,1.28,0,0,.82.48,1.69-.55,0,0,1.06-1.3-1.09-2.31a4.39,4.39,0,0,0-4.16.33,7.25,7.25,0,0,0-2.6,3.2v0s-2.28,4-5.41,5c0,0-3.12,1-4.41-.94a4.37,4.37,0,0,1-.11-4.09s.91-3,3.25-3.66c0,0,.75-.2,1.12.15,0,0,.39.3.07.62,0,0-1,.74-.16,1.33a1.31,1.31,0,0,0,1.57-.27s1-.85-.39-2.19a3.57,3.57,0,0,0-3.43-.63,8.22,8.22,0,0,0-3.91,3.52,19,19,0,0,1-9,6.3c1.57-3.34,3.47-7.46,4.83-10.67,0,0,.75-1.38-.62-1.68,0,0-1.47-.5-1.94,1.35A14.36,14.36,0,0,1,104.6,85.46ZM99.34,101s-1.46,2.61-2.62,1.65c0,0-1.39-1.08,0-4.38,0,0,1.33-2.9,6.54-5.7C102.07,95.24,100.66,98.31,99.34,101Z"/><path class="cls-1" d="M175.48,72.51a5.13,5.13,0,0,0,.57,0,11.63,11.63,0,0,0,4.31-1.13l.11-.07a4.23,4.23,0,0,0,.47-.33,2.58,2.58,0,0,0,.88-1.78,2.06,2.06,0,0,0-.79-1.59l0,0a2.22,2.22,0,0,0-1.88-.45,2,2,0,0,0-1.28,1.48l0,.06a2.19,2.19,0,0,0,.49,1.85,12.84,12.84,0,0,1-2.4.43,1.51,1.51,0,0,1-1.24-.25,1.1,1.1,0,0,1-.11-.83.38.38,0,0,1,.11-.18.64.64,0,0,1,.37.08.78.78,0,0,0,.78-1.35,2.14,2.14,0,0,0-1.68-.2,1.77,1.77,0,0,0-1.06,1.16v0a2.64,2.64,0,0,0,.41,2.27A2.54,2.54,0,0,0,175.48,72.51Zm3.87-3.5c.1-.3.2-.39.23-.4a.76.76,0,0,1,.43.17.58.58,0,0,1,.24.39,1.05,1.05,0,0,1-.34.61h0C179.36,69.52,179.33,69.16,179.35,69Z"/><path class="cls-1" d="M247.63,88.5a2.06,2.06,0,0,0,1.11.3,3.62,3.62,0,0,0,1.43-.35,10.7,10.7,0,0,0,3.48-2.33l0,0a3.73,3.73,0,0,0,.33-.45v0a2.45,2.45,0,0,0,.24-1.87,2,2,0,0,0-1.2-1.19h0a2.11,2.11,0,0,0-1.83.17,1.9,1.9,0,0,0-.7,1.73v.06a2.09,2.09,0,0,0,.94,1.47,11.85,11.85,0,0,1-1.89,1,1.37,1.37,0,0,1-1.1.16,1,1,0,0,1-.32-.65.56.56,0,0,1,0-.15.57.57,0,0,1,.3,0,.78.78,0,0,0,.3-1.53,2,2,0,0,0-1.58.35,1.68,1.68,0,0,0-.6,1.37v0A2.5,2.5,0,0,0,247.63,88.5ZM252.1,84a.69.69,0,0,1,.37,0,.48.48,0,0,1,.29.24.88.88,0,0,1-.09.55c-.47-.07-.59-.31-.63-.45A.76.76,0,0,1,252.1,84Z"/><path class="cls-1" d="M263,90.09s0-1.3-.57-1.46c0,0-.58,0-.65,1.41,0,0,.24,4.29-1.33,5.55,0,0-1.14,1.24-2-1.39a38.31,38.31,0,0,1-1.32-5.79s-.16-1.49-1.46-1c0,0-.95.33-.64,2,0,0,1.39,6.79-1.11,9.82,0,0-1.51,2.32-2.74.38,0,0-.92-1.47-1.74-6.69,0,0-.18-1.64-1.38-1a1.81,1.81,0,0,0-1,1.77s.11,1,.39,2.27c-.22,2.48-.77,6.09-2.12,6.79,0,0-1.39,1.06-1.87-1a45,45,0,0,1-1.23-6.91s0-1.3-1.09-1.16c0,0-1.27.16-1.35,2a12.8,12.8,0,0,1-1.37,6.3c-.6-.61-1.79-1.24-3.74.1a9.57,9.57,0,0,0-1.08,1,31.22,31.22,0,0,1-.44-4s0-1.6-1.11-1.17c0,0-1.11.36-.93,2.45,0,0,.08.72.24,1.74-.53,7.93-3.62,8.74-3.62,8.74-1.8.64-1.91-1-1.91-1L225,102c-.21-1.83-.84-1.69-.84-1.69-.84.13-.45,1.91-.45,1.91a13.68,13.68,0,0,1,.27,3,2.87,2.87,0,0,1-3.3,2.42,7.43,7.43,0,0,0-2.61.08.83.83,0,0,1-.75,0l-.43-3.53c-.3-1.92-2.37-1.12-2.37-1.12-3.31,1.11-3.12,4.89-3.12,4.89a15.77,15.77,0,0,1-.55,4.15,5.22,5.22,0,0,1-2.6,3.91c-1.38.53-1.27-1.54-1.27-1.54l-.21-7.12c0-1.72-.7-1.6-.7-1.6-.91.1-.61,2.21-.61,2.21.15,2.27-.12,2.56-.12,2.56a2.55,2.55,0,0,1-2.94,1.66,4.9,4.9,0,0,0-3.19.13l-.11-2.68c-.07-1.42-1.64-1.16-1.64-1.16-3,.42-3.63,3.9-3.63,3.9-.92,3-2.3,3.87-3.21,4.1a6.27,6.27,0,0,0-3-6.18,6.52,6.52,0,0,0-3.36-.72,7.24,7.24,0,0,0-6.73,5.54,10.71,10.71,0,0,0-.29,2.43c-.68,1.92-2,4.76-4.09,5.65a1.74,1.74,0,0,1-2.49-1.35s-.32-2.16.79-7.73c0,0,.51-1.64-1.08-1.54,0,0-1.1,0-1.5,1.91,0,0-1.33,8.37-5.62,10.32,0,0-2.56,1.36-2.32-3.5a35.58,35.58,0,0,1,.7-6,1.05,1.05,0,0,0-1.08-1.39s-1.09-.17-1.72,1.81c0,0-.1.44-.21,1.14a26.73,26.73,0,0,1-3.44,7.21l-.12-.39s-.12-.72-.71-.71c0,0-.52,0-.78.82,0,0-.83,2.41-2,1.63,0,0-.78-.25-.31-2.48,0,0,.42-2.37,1.23-6.1,0,0,.54-1.52-.84-1.53,0,0-1.31-.3-1.78,1.87,0,0-.6,5.64-4.88,8.66,0,0-2.38,1.75-3.25.05,0,0-1.08-1.75,1-7.61,0,0,1-2.06-.15-2.34a1.65,1.65,0,0,0-1.91,1.11s-.61,2-1,4.17c-1.94,2.66-3.65,3.06-4.44,3.08a6.22,6.22,0,0,0,.12-3.38s-.64-3.24-3.56-3.82a6.06,6.06,0,0,0-5.31,1.9,7.84,7.84,0,0,0-1.74,4.71c-.83.58-1.6-.72-1.6-.72a1.74,1.74,0,0,0-2.15-1l.71-3c.45-2.13-1.81-1.9-1.81-1.9-2.33.13-6.42,6.67-6.42,6.67-2.64,3.52-4.45,2.57-4.45,2.57-1.75-1.08.94-6.55.94-6.55,1.6-3.17.08-3.46.08-3.46-1.3-.44-3.06,3.53-3.06,3.53-3.55,6.84-6.09,5.79-6.09,5.79-1.25-.34-.74-3.34-.74-3.34.32-2.53-1.24-1.56-1.24-1.56A5.37,5.37,0,0,1,95,121.74c.52-1.2,1.8-5-2.08-7.25A6.21,6.21,0,0,0,85.64,116a8.46,8.46,0,0,0-.69,1,18.29,18.29,0,0,1-4.3-.67c.09-.19.18-.39.27-.6,0,0,2.35-6.08-1.77-7.13a3.44,3.44,0,0,0-.48-.08,37.06,37.06,0,0,0,5.19-5.27s6.29-7.91.56-9.92c0,0-3.89-1.71-6.92,3.78l-8.43,16.1c-2.89,1.94-8.33,5.06-12.38,4.2a3.76,3.76,0,0,1-2.89-3.31h.07s7.16-1.38,8.4-5.23c0,0,1-3.92-3.77-4.29,0,0-3.73-.74-6.73,4.58a9.52,9.52,0,0,0-1.1,4.41,15.75,15.75,0,0,1-4.47,0s-2.15-.22-1.92-1.78a4.91,4.91,0,0,1,1.3-2.39s2.9-3.21,1-5.33c0,0-1.31-1.68-4.39-.86,0,0,1.24-1.22.11-1.83,0,0-1-.57-2.35.63l-3,2.54a1.4,1.4,0,0,0-.6,1.22,6.91,6.91,0,0,1-4.34-.32,6.65,6.65,0,0,0,1.3-2.8,4.31,4.31,0,0,0-1.89-4.53,5.82,5.82,0,0,0-6.77.26,6.62,6.62,0,0,0-1.81,2,8.91,8.91,0,0,1-4.63,1l-2.95,0c2.48-2.23,5-4.61,6.94-6.6,0,0,1-.87,0-1.58,0,0-.82-.92-2.06.28l-.83.84c0-1.09-.29-3.5-3.66-4.57a6.81,6.81,0,0,0-6.54,1.35s-3.87,3.6-.72,7.74a5.41,5.41,0,0,0,4.79,1.67l-.87.87a20.59,20.59,0,0,0-7.52,1.89S1,105.09.18,107.87c0,0-1.21,3.72,2.59,3.18a9.28,9.28,0,0,0,4-2.31s3.3-2.76,7.11-6.15c.95,0,2.32.08,4.2.17a12.36,12.36,0,0,0,4.09-.53,5.11,5.11,0,0,0,.38,2.76s1.14,2.91,5.47,2.59a5.86,5.86,0,0,0,3.18-1.29,8.55,8.55,0,0,0,5.52.64l-10,13.46s-.83,1,.23,1.51c0,0,1,.59,2-.71l11.48-15.54s2.3-2.62,4.3-1.12c0,0,1.36.86-.89,3.51,0,0-3.62,4.18-.31,5.91,0,0,2.25,1.25,7.26.68A4.63,4.63,0,0,0,53,117.59s5.88,4,14.82-2l-.32.61s-3.42,5.39,3,6.46a11.36,11.36,0,0,0,9.52-5.1,17.91,17.91,0,0,0,4.37.7,4.78,4.78,0,0,0,2.21,6.41s3.86,2.2,7.75-1.94a5.58,5.58,0,0,0,4.24-.7c.5-.38.39.24.39.24-.73,3.73,1.35,4.57,1.35,4.57,2.75,1.34,6.18-3.54,6.18-3.54-1,3.59,1.71,4.2,1.71,4.2,3.71.94,6.3-3.13,6.3-3.13,3.43-4.83,5-6,5-6l-1.92,8.14c-.44,1.34.68,1.53.68,1.53,1.27.19,1.55-1.21,1.55-1.21l.8-3.36c1.1-.87,2.05.83,2.05.83a1.52,1.52,0,0,0,2.3.59,5.55,5.55,0,0,0,1.57,2.41s3.26,3.07,7.16-.58a6,6,0,0,0,1.06-1.44,6.22,6.22,0,0,0,4.58-2,6.18,6.18,0,0,0,.27,3.08s2.17,5.21,9.35-3.1c0,0-.73,3.67,2.48,4.1a2.22,2.22,0,0,0,1-.2c-.88,1.45-2.09,3.94-.67,4.83,0,0,1.86,1.15,3-1.49a8,8,0,0,0,.79-5.21l0,0a31.94,31.94,0,0,0,2.77-3.7c.09,1.73.48,3.35,1.52,4.11,0,0,3.66,3.18,8.66-4.74,0,0-.29,5.11,4.31,3.63a7.78,7.78,0,0,0,4.71-5c.49,1.92,1.83,3.79,5.17,4.12,0,0,5.41.41,7.71-5.92,3.37-.49,4.45-4.63,4.45-4.63a5.72,5.72,0,0,1,1.27-2.82c.69-.62.68.2.68.2l.24,7.41c0,2.39,1.26,2.1,1.26,2.1,1.39-.11,1.19-2,1.19-2l-.17-4.18c.8-1.12,3-.5,3-.5a3.32,3.32,0,0,0,3.33-1.07c-.3,5,1.78,5,1.78,5,2.71-.08,4.1-4.05,4.1-4.05a23.72,23.72,0,0,0,.72-4.94c.12-3.21,1.48-3.74,1.48-3.74.7-.37.78.15.78.15l1.09,9c.12,2.12,1.64,1.49,1.64,1.49,1.13-.29.84-2,.84-2l-.45-3.64c.82-1.3,2.93-.75,2.93-.75a3.61,3.61,0,0,0,3.78-1.52,9.83,9.83,0,0,0,.4,3.16c.86,2.41,3.47,1.45,3.47,1.45,2.53-.81,3.5-4.43,3.87-6.8a8.78,8.78,0,0,0,1.38,3.33s1.44,1.8,4.06-.32a4.51,4.51,0,0,0,1.58-5.34,7.7,7.7,0,0,0,1.12-2.11,16.17,16.17,0,0,0,.64-2.14s.37,7,4.56,5.94c0,0,2.26-.37,2.92-5.81.76,2.1,2,4,3.75,3.51,0,0,3.34-.28,4.41-6.77,0,0,1.21,3.36,4,2C260.39,97.46,263.31,96,263,90.09ZM11.45,99.19c-2.3-.44-2.08-3-2.08-3a4.92,4.92,0,0,1,2.5-4.3c3.09-1.71,4.85-.1,4.85-.1a3.47,3.47,0,0,1,1.12,4l-2.76,2.79A5.79,5.79,0,0,1,11.45,99.19Zm-6,8.93s-3.18,2.8-4.14,1.43c0,0-.79-1.08,1-3.07a14.75,14.75,0,0,1,8.7-3.82C8.55,105.16,6.28,107.39,5.48,108.11Zm18.95-2.84s-1.37-1.9.82-4.4c0,0,1.91-2.21,4.36-2.19,0,0-3.54,3,.5,7C30.1,105.64,26.63,107.67,24.42,105.27Zm6.59-.43s-2.17-1.83-1.42-4c0,0,.64-1.69,1.39-1.23C31,99.59,33.55,101.47,31,104.84Zm23.05,6.26s.84-4.35,4.32-4.94c0,0,2.92-.43,2.52,2.33,0,0-.35,2.72-7.14,4.5A9.42,9.42,0,0,1,54.07,111.1Zm25.95.1a6.16,6.16,0,0,1-.65,4.7,6.49,6.49,0,0,1-2.91-2.25,2.63,2.63,0,0,1,0-3.06A2.23,2.23,0,0,1,80,111.2Zm1-14.66s1.8-2.74,4-1.35c0,0,2.51,1.37-1.95,7,0,0-2.33,3.85-9.73,8.28C75.88,105.6,79.33,99.09,81,96.54Zm-4.76,22.76s-5.15,3.65-6.6,1c0,0-.77-1.36.68-3.91,0,0,.73-1.45,1.83-3.59.69-.33,1.51-.76,2.44-1.32a4.75,4.75,0,0,0,2,4.48,7.67,7.67,0,0,0,2,1.15A11.69,11.69,0,0,1,76.27,119.31Zm16.11-3.62c3.6,1.57,1.44,5.54,1.44,5.54a3.71,3.71,0,0,1-2.48-3.42C91.19,115.28,92.38,115.69,92.38,115.69Zm-5.9,7.44S85,121,87,118a6.76,6.76,0,0,1,3.7-2.85s-2.69,4.06,2.44,7.16C93.13,122.28,89.74,125.79,86.48,123.13Zm42.18,3.32s-2.61-1.44-1-4.93a6.12,6.12,0,0,1,2.84-3.3s-1.69,5.08,3.07,6.87C133.55,125.09,131.61,128.14,128.66,126.45Zm2.72-6.4c-.07-2.69,1.86-.93,1.86-.93,1.73,1.67.85,4.89.85,4.89A4.23,4.23,0,0,1,131.38,120Zm22.3,9.53s-.61.85-1,.11c0,0-.46-1,1.69-3.24A4.18,4.18,0,0,1,153.68,129.57Zm27.93-7.51s-3.27-1.56-1.68-6.68c0,0,1.12-3,3.29-4.24,0,0-1.42,5.93,5.58,7.2C188.8,118.34,185.81,123.94,181.61,122.06Zm7.51-5.09c-3.76-.39-4.43-3.24-4.43-3.24-1.13-4.25,2.38-2.11,2.38-2.11A5,5,0,0,1,189.12,117ZM235.35,103s1.6-1.11,2.42-.08a4.81,4.81,0,0,1-.8.69s-1.56,1-2.28.51C234.69,104.17,234.25,103.81,235.35,103Zm2,3.49s-1.84,1.88-2.75.34a19.35,19.35,0,0,1-.54-1.87,5.6,5.6,0,0,0,1.48,0,5.25,5.25,0,0,0,2.56-1.24A3,3,0,0,1,237.36,106.53Z"/><path class="cls-1" d="M124.78,26.78a8.46,8.46,0,0,0,2.33,1.34,11.58,11.58,0,0,0,2.7.68c-.11.48-.32,6-.62,6.17a3.07,3.07,0,0,1-.94.4l-.85.18c-.25,0-.37.17-.37.35a.34.34,0,0,0,.2.35,1,1,0,0,0,.38.08q.94,0,1.89-.07c.63,0,1.26-.07,1.88-.07s1.3,0,1.93.07,1.26.07,1.89.07a1,1,0,0,0,.38-.08.34.34,0,0,0,.2-.35c0-.19-.12-.31-.37-.35l-.85-.18a3.05,3.05,0,0,1-.93-.4c-.31-.19-.51-5.69-.62-6.17a11.55,11.55,0,0,0,2.7-.68A8.43,8.43,0,0,0,138,26.78a6.39,6.39,0,0,0,1.63-2A5.86,5.86,0,0,0,140.3,22a4.51,4.51,0,0,0-.68-2.5,6.18,6.18,0,0,0-1.74-1.77,8.61,8.61,0,0,0-2.36-1.12,13.21,13.21,0,0,0-2.5-.51,14.8,14.8,0,0,1,.4-2.37,3.33,3.33,0,0,1,.55-.35l.5-.26a.39.39,0,0,0,.22-.36.34.34,0,0,0-.16-.32.71.71,0,0,0-.35-.09q-.78,0-1.56.08a9.62,9.62,0,0,1-1.22.08,8.9,8.9,0,0,1-1.17-.08c-.52-.05-1-.08-1.56-.08a.71.71,0,0,0-.35.09.34.34,0,0,0-.16.32.39.39,0,0,0,.22.36l.5.26a3.34,3.34,0,0,1,.55.35,14.6,14.6,0,0,1,.39,2.37,13.26,13.26,0,0,0-2.5.51,8.59,8.59,0,0,0-2.36,1.12,6.19,6.19,0,0,0-1.75,1.77,4.52,4.52,0,0,0-.68,2.5,5.86,5.86,0,0,0,.62,2.75A6.4,6.4,0,0,0,124.78,26.78Zm9.76-8.54a5.26,5.26,0,0,1,2.25,2.66,5,5,0,0,1,.32,1.81,4.85,4.85,0,0,1-.31,1.77,4.37,4.37,0,0,1-.87,1.4,4.9,4.9,0,0,1-1.33,1,5.42,5.42,0,0,1-1.71.54q0-2.48,0-4.95t0-4.95A6.75,6.75,0,0,1,134.54,18.24ZM126,20.9a5.26,5.26,0,0,1,2.25-2.66,6.76,6.76,0,0,1,1.68-.72q0,2.49,0,4.95t0,4.95a5.39,5.39,0,0,1-1.71-.54,4.87,4.87,0,0,1-1.33-1,4.37,4.37,0,0,1-.87-1.4,4.85,4.85,0,0,1-.31-1.77A5,5,0,0,1,126,20.9Z"/><path class="cls-1" d="M116.56,38.21s-1.42,6.32,8.62,9.47c0,0,4.33,1.1,5.64,3.89a.71.71,0,0,0,1.36,0c1.31-2.78,5.64-3.89,5.64-3.89,10-3.14,8.62-9.47,8.62-9.47a27.86,27.86,0,0,1,3.74-16.37,10.34,10.34,0,0,0,1.63-5.75V12.23a8.17,8.17,0,0,0-3.89-6.4c-4-2.46-8.9-.74-8.9-.74-2-3.71-7.07-5-7.07-5a1,1,0,0,0-.89,0S126,1.37,124,5.08c0,0-4.89-1.72-8.9.74a8.17,8.17,0,0,0-3.89,6.4v3.86a10.34,10.34,0,0,0,1.63,5.75A27.87,27.87,0,0,1,116.56,38.21Zm-1-31c3.58-2.44,8.35-.7,8.35-.7.95.36,1.18-.38,1.18-.38,1.45-3.44,6.44-4.7,6.44-4.7s5,1.26,6.44,4.7c0,0,.24.74,1.18.38,0,0,4.78-1.75,8.35.7a6.94,6.94,0,0,1,2.91,6.72,11.09,11.09,0,0,1-1.48,4.31A29.55,29.55,0,0,0,145,35.33s.63,5.66-7.6,8c0,0-4.68,1.1-5.93,3.5-1.25-2.4-5.93-3.5-5.93-3.5-8.23-2.34-7.6-8-7.6-8a29.55,29.55,0,0,0-3.88-17.08,11.08,11.08,0,0,1-1.48-4.31A6.94,6.94,0,0,1,115.52,7.21Z"/><path class="cls-1" d="M68.14,154.31a8.24,8.24,0,0,0,.46-4.71,11.29,11.29,0,0,0-1.84-4.16A15.66,15.66,0,0,0,63.45,142a23.81,23.81,0,0,0-4-2.48,2.14,2.14,0,0,1,1.09-.85,6,6,0,0,1,1.17-.24c.37,0,.71-.08,1-.12a.72.72,0,0,0,.61-.47.62.62,0,0,0-.06-.66,1.28,1.28,0,0,0-.54-.37q-1.34-.51-2.72-.88t-2.72-.88q-1.46-.55-2.86-1.23t-2.86-1.23a6.23,6.23,0,0,0-.91-.25.6.6,0,0,0-.76.43q-.16.42.4.82l1.28.9a6.74,6.74,0,0,1,1.31,1.2,2.16,2.16,0,0,1,.48,1.69,23.94,23.94,0,0,0-5-.56,15,15,0,0,0-4.81.73,11.66,11.66,0,0,0-4.08,2.33,10.35,10.35,0,0,0-2.81,4.23,8.9,8.9,0,0,0-.54,4.88,10.73,10.73,0,0,0,1.81,4.22,15.7,15.7,0,0,0,3.37,3.45,22.62,22.62,0,0,0,4.18,2.52,3,3,0,0,1-1.22,1.21,3.86,3.86,0,0,1-1.26.35l-1.06.09a.68.68,0,0,0-.62.49.62.62,0,0,0,0,.66,1.25,1.25,0,0,0,.51.35q1.28.48,2.62.85t2.62.85q1.6.6,3.17,1.33t3.19,1.34a1.86,1.86,0,0,0,.71.11.63.63,0,0,0,.57-.48q.18-.48-.4-.84T53,164.64a5.54,5.54,0,0,1-1.34-1.29,2.78,2.78,0,0,1-.41-2.12,21.32,21.32,0,0,0,5.05.57A15.39,15.39,0,0,0,61.2,161a11.71,11.71,0,0,0,4.1-2.39A10.72,10.72,0,0,0,68.14,154.31Zm-21.6,2.33a9.93,9.93,0,0,1-2.67-2.46,9.33,9.33,0,0,1-1.49-3,9.84,9.84,0,0,1-.34-3.35,12,12,0,0,1,.77-3.48,7.79,7.79,0,0,1,4-4.69,9.25,9.25,0,0,1,6.22-.24,3.05,3.05,0,0,1-.14.49l-.18.47Zm15.7-3.2a8.83,8.83,0,0,1-1.68,2.82,8,8,0,0,1-2.4,1.84,8.88,8.88,0,0,1-2.92.86,9.91,9.91,0,0,1-3.28-.18q1.61-4.25,3.22-8.46t3.14-8.49a12.45,12.45,0,0,1,2.41,2.3,9.6,9.6,0,0,1,2.12,6A9.15,9.15,0,0,1,62.24,153.45Z"/><path class="cls-1" d="M97.17,176.13l-.93-.46a3.37,3.37,0,0,1-1.32-1.45,7.29,7.29,0,0,1-.69-1.84L88,145.23c-.08-.33-.19-.73-.32-1.23a1.06,1.06,0,0,0-.78-.86.87.87,0,0,0-.8.37,7.91,7.91,0,0,0-.61.72L69.61,165.08l-1.1,1.49a5.93,5.93,0,0,1-1.31,1.31,3.69,3.69,0,0,1-.76.42l-1.14.49a10.76,10.76,0,0,0-1.06.5c-.31.17-.48.31-.5.43a.58.58,0,0,0,.23.64,1.71,1.71,0,0,0,.65.3,23.21,23.21,0,0,0,2.51.39,22.89,22.89,0,0,1,2.51.39,22.16,22.16,0,0,1,2.43.66,21.68,21.68,0,0,0,2.41.65,1.22,1.22,0,0,0,.66,0,.67.67,0,0,0,.42-.56.94.94,0,0,0-.57-1c-.47-.28-1-.56-1.58-.86a5.32,5.32,0,0,1-1.52-1.15,2,2,0,0,1-.4-1.85,2.55,2.55,0,0,1,.35-.84c.17-.26.33-.5.5-.72L73.47,164a5.66,5.66,0,0,1,1.08-1.22,2.91,2.91,0,0,1,1.4-.62,6,6,0,0,1,2.15.14l6.06,1.29a7.07,7.07,0,0,1,1.64.53,2,2,0,0,1,.92,1.41l.93,3.73a9.73,9.73,0,0,1,.17,1,3.12,3.12,0,0,1-.05,1,2.14,2.14,0,0,1-.83,1.47,3.48,3.48,0,0,1-1.26.47l-1.2.18a.74.74,0,0,0-.66.64.56.56,0,0,0,.2.59,1.34,1.34,0,0,0,.57.29q1.48.32,2.93.48t2.93.48q1.54.33,3.06.79t3.08.8a1.35,1.35,0,0,0,.62,0,.52.52,0,0,0,.38-.44A.74.74,0,0,0,97.17,176.13Zm-11.11-15a.48.48,0,0,1-.32.4,1,1,0,0,1-.5,0l-6.92-1.47a5.46,5.46,0,0,1-.75-.24.49.49,0,0,1-.37-.6,3.78,3.78,0,0,1,.46-.82q.42-.65,1.07-1.56L80.1,155q.73-1,1.42-1.88t1.2-1.46a3.07,3.07,0,0,1,.66-.65.71.71,0,0,1,.38.39q.07.3.31,1.09c.16.53.33,1.13.5,1.81s.35,1.41.53,2.17l.51,2.15q.24,1,.37,1.7A3.23,3.23,0,0,1,86.05,161.15Z"/><path class="cls-1" d="M124.55,150.47a10.3,10.3,0,0,0-3.22-1.93,13.83,13.83,0,0,0-3.87-.86q-2.16-.17-4.33-.2t-4.33-.2q-1.55-.12-3.09-.38t-3.09-.38a3,3,0,0,0-.75.06c-.3.06-.46.21-.48.47a.85.85,0,0,0,.46.89,12.77,12.77,0,0,0,1.18.55,11.9,11.9,0,0,1,1.37.68,2.31,2.31,0,0,1,1,1.27,4,4,0,0,1,.28,1.67q0,.93-.09,1.72l-1.43,18.44a8.26,8.26,0,0,1-.43,2.11,2.52,2.52,0,0,1-1.51,1.46l-.45.16a5.15,5.15,0,0,0-.54.21,1.72,1.72,0,0,0-.46.3.64.64,0,0,0-.21.44c0,.33.05.54.24.65a1.67,1.67,0,0,0,.67.18q1.29.1,2.62.07t2.59.07q1.64.13,3.24.38t3.24.38a2,2,0,0,0,.73-.09.62.62,0,0,0,.44-.61.67.67,0,0,0-.28-.56,3.67,3.67,0,0,0-.72-.48,7.67,7.67,0,0,0-.88-.38,7.11,7.11,0,0,1-.67-.27,3.06,3.06,0,0,1-1.08-.92,3.35,3.35,0,0,1-.53-1.21,5.75,5.75,0,0,1-.14-1.37q0-.7.07-1.41l1.39-17.89a15.82,15.82,0,0,1,.22-1.74,2.71,2.71,0,0,1,.54-1.24,2.14,2.14,0,0,1,1.08-.68,5.1,5.1,0,0,1,1.82-.12,7,7,0,0,1,2.7.74,6.47,6.47,0,0,1,2,1.62,6.34,6.34,0,0,1,1.21,2.3,7.77,7.77,0,0,1,.27,2.81,6.72,6.72,0,0,1-1.77,4.28,5.13,5.13,0,0,1-4.33,1.42,5.45,5.45,0,0,1-1.06-.19,5.56,5.56,0,0,0-1.07-.19q-.84-.06-.89.69a1.1,1.1,0,0,0,.45,1,3.5,3.5,0,0,0,1.21.6,8.3,8.3,0,0,0,1.45.29l1.17.11a12.83,12.83,0,0,0,3.78-.26,10.08,10.08,0,0,0,3.34-1.37,7.86,7.86,0,0,0,2.44-2.52,8.06,8.06,0,0,0,1.12-3.66,8.42,8.42,0,0,0-.55-3.95A8.12,8.12,0,0,0,124.55,150.47Z"/><path class="cls-1" d="M162.46,156.17a11.31,11.31,0,0,0-3.43-3,15.7,15.7,0,0,0-4.46-1.7,23.82,23.82,0,0,0-4.63-.58,2.12,2.12,0,0,1,.63-1.24,6,6,0,0,1,1-.71q.48-.29.87-.54a.72.72,0,0,0,.35-.68.62.62,0,0,0-.34-.57,1.3,1.3,0,0,0-.64-.11q-1.43.11-2.84.36t-2.84.36q-1.56.12-3.11.1t-3.11.1a6.38,6.38,0,0,0-.93.16.6.6,0,0,0-.51.71c0,.3.26.49.71.57l1.54.27a6.78,6.78,0,0,1,1.69.53,2.17,2.17,0,0,1,1.15,1.33,24.05,24.05,0,0,0-4.8,1.62,15,15,0,0,0-4,2.7,11.66,11.66,0,0,0-2.7,3.84,10.37,10.37,0,0,0-.75,5,8.93,8.93,0,0,0,1.58,4.65,10.77,10.77,0,0,0,3.43,3.06,15.69,15.69,0,0,0,4.51,1.7,22.74,22.74,0,0,0,4.86.52,3,3,0,0,1-.59,1.61,3.84,3.84,0,0,1-1,.85l-.92.52a.68.68,0,0,0-.35.71.62.62,0,0,0,.32.58,1.23,1.23,0,0,0,.61.1c.91-.07,1.82-.18,2.74-.34s1.83-.27,2.74-.34q1.7-.13,3.44-.13t3.46-.13a1.87,1.87,0,0,0,.69-.2.62.62,0,0,0,.31-.67q0-.52-.72-.59t-1.57-.21a5.53,5.53,0,0,1-1.76-.6,2.77,2.77,0,0,1-1.27-1.75,21.28,21.28,0,0,0,4.82-1.62,15.4,15.4,0,0,0,4.07-2.76,11.72,11.72,0,0,0,2.7-3.9,10.68,10.68,0,0,0,.74-5.1A8.23,8.23,0,0,0,162.46,156.17ZM142,170.78a9.36,9.36,0,0,1-2.62-2.1,9.86,9.86,0,0,1-1.73-2.89,12,12,0,0,1-.78-3.47,7.77,7.77,0,0,1,1.61-5.92,9.25,9.25,0,0,1,5.53-2.85,3.2,3.2,0,0,1,.08.5l0,.5,1.33,17.34A10,10,0,0,1,142,170.78Zm16-5.18a8,8,0,0,1-1.39,2.68,8.88,8.88,0,0,1-2.28,2,9.94,9.94,0,0,1-3,1.23q-.35-4.53-.67-9t-.76-9a12.49,12.49,0,0,1,3.16,1.07,9.63,9.63,0,0,1,4.47,4.54,9.16,9.16,0,0,1,.84,3.25A8.83,8.83,0,0,1,158,165.6Z"/><path class="cls-1" d="M197.7,146.31a14.06,14.06,0,0,0-4.44-3.69,15.15,15.15,0,0,0-5.61-1.65,18.1,18.1,0,0,0-6.21.48,20.14,20.14,0,0,0-6.53,2.84,15.58,15.58,0,0,0-4.49,4.57,14.62,14.62,0,0,0-2.11,6,19.08,19.08,0,0,0,.51,7.11,15.93,15.93,0,0,0,2.68,5.83,13.44,13.44,0,0,0,4.36,3.77,14.53,14.53,0,0,0,5.61,1.65,19,19,0,0,0,6.38-.54,19.51,19.51,0,0,0,6.55-2.89,15.39,15.39,0,0,0,4.42-4.67,15.57,15.57,0,0,0,2.09-6.09,19.05,19.05,0,0,0-.5-7.12A14.38,14.38,0,0,0,197.7,146.31ZM195,164.56a9.58,9.58,0,0,1-2.45,3.59,9.72,9.72,0,0,1-4.35,2.19,9,9,0,0,1-5.38-.14,11,11,0,0,1-4.18-2.74,16.37,16.37,0,0,1-3-4.35,26.27,26.27,0,0,1-1.81-5,21.54,21.54,0,0,1-.66-4.63,10.86,10.86,0,0,1,.63-4.14,8.34,8.34,0,0,1,2.28-3.3,9.8,9.8,0,0,1,4.28-2.1,10.14,10.14,0,0,1,5.33,0,11.23,11.23,0,0,1,4.36,2.38,15.14,15.14,0,0,1,3.21,4,20.21,20.21,0,0,1,2,4.92,19.36,19.36,0,0,1,.59,4.8A12.39,12.39,0,0,1,195,164.56Z"/><path class="cls-1" d="M221.77,132.85a8.13,8.13,0,0,0-3.2-1.69,10.28,10.28,0,0,0-3.75-.28,13.82,13.82,0,0,0-3.85,1q-2,.82-4,1.77t-4,1.76q-1.43.58-2.93,1t-2.93,1a3,3,0,0,0-.64.39.5.5,0,0,0-.22.63.86.86,0,0,0,.81.59,12.35,12.35,0,0,0,1.3,0,11.67,11.67,0,0,1,1.53,0,2.32,2.32,0,0,1,1.48.68,4,4,0,0,1,1,1.36q.39.84.69,1.58l7,17.12a8.23,8.23,0,0,1,.56,2.08,2.51,2.51,0,0,1-.69,2l-.33.34a5.37,5.37,0,0,0-.39.43,1.73,1.73,0,0,0-.28.48.64.64,0,0,0,0,.49c.13.31.29.46.51.47a1.67,1.67,0,0,0,.68-.14q1.19-.49,2.37-1.11a25.86,25.86,0,0,1,2.35-1.1q1.52-.62,3.06-1.11t3.06-1.11a2,2,0,0,0,.61-.41.62.62,0,0,0,.11-.74.67.67,0,0,0-.5-.38,3.7,3.7,0,0,0-.86-.1,7.68,7.68,0,0,0-1,.05,7.12,7.12,0,0,1-.71.06,3.05,3.05,0,0,1-1.37-.34,3.4,3.4,0,0,1-1-.84,5.85,5.85,0,0,1-.74-1.16q-.3-.63-.58-1.29l-6.8-16.61a16.15,16.15,0,0,1-.58-1.65,2.74,2.74,0,0,1-.08-1.35,2.16,2.16,0,0,1,.66-1.09,5.09,5.09,0,0,1,1.58-.92,7,7,0,0,1,2.74-.55,6.5,6.5,0,0,1,2.56.53,6.37,6.37,0,0,1,2.12,1.51,7.79,7.79,0,0,1,1.5,2.39,6.71,6.71,0,0,1,.34,4.62,5.12,5.12,0,0,1-3.24,3.21,5.44,5.44,0,0,1-1,.31,5.48,5.48,0,0,0-1,.31q-.78.32-.49,1a1.1,1.1,0,0,0,.85.69,3.49,3.49,0,0,0,1.35,0,8.21,8.21,0,0,0,1.42-.39l1.1-.42a12.8,12.8,0,0,0,3.26-1.93,10.07,10.07,0,0,0,2.37-2.73,7.82,7.82,0,0,0,1.05-3.34,8.06,8.06,0,0,0-.65-3.77A8.42,8.42,0,0,0,221.77,132.85Z"/></svg>